<?xml version="1.0" standalone="no"?>
<!DOCTYPE svg PUBLIC "-//W3C//DTD SVG 1.1//EN" "http://www.w3.org/Graphics/SVG/1.1/DTD/svg11.dtd" >
<svg xmlns="http://www.w3.org/2000/svg" xmlns:xlink="http://www.w3.org/1999/xlink" version="1.1">
<metadata></metadata>
<defs>
<font id="ocrbregular" horiz-adv-x="1233" >
<font-face units-per-em="2048" ascent="1638" descent="-410" />
<missing-glyph horiz-adv-x="500" />
<glyph horiz-adv-x="0" />
<glyph unicode="&#xd;" />
<glyph unicode=" " />
<glyph unicode="!" d="M384 0v227h270v-227h-270zM384 1414h270l-40 -884h-195z" />
<glyph unicode="&#x22;" d="M308 1403h221l-33 -434h-168zM703 1403h220l-32 -434h-168z" />
<glyph unicode="#" d="M165 0l93 395h-93l35 132h87l78 352h-164l39 128h152l91 413h148l-91 -413h282l91 413h156l-90 -413h90l-38 -128h-80l-79 -352h158l-37 -132h-146l-86 -395h-155l85 395h-280l-91 -395h-155zM437 527h281l77 352h-283z" />
<glyph unicode="$" d="M150 375q0 10 3 35h192q4 -70 47 -102t131 -32l30 1v383q-208 59 -303.5 141.5t-95.5 202.5q0 81 43.5 152t116.5 109q87 45 239 58v91h154v-99q141 -13 227 -71q132 -90 132 -205q0 -9 -3 -31h-192q0 78 -33.5 105t-130.5 27v-342q212 -68 304 -149t92 -198 q0 -145 -103.5 -237t-292.5 -116v-98h-154v99l-43 -1q-140 0 -250 84.5t-110 192.5zM348 1006q0 -60 34.5 -92t136.5 -65q11 -4 34 -11v302q-205 0 -205 -134zM707 276q109 14 155.5 49.5t46.5 104.5q0 62 -43.5 100t-158.5 76v-330z" />
<glyph unicode="%" d="M180 1150q0 102 61.5 166t159.5 64q90 0 150 -64.5t60 -160.5q0 -104 -60.5 -168t-158.5 -64q-92 0 -152 64.5t-60 162.5zM190 0v103l762 1285h93v-111l-751 -1277h-104zM313 1122q0 -89 82 -89q81 0 81 80v81q0 76 -82 76q-81 0 -81 -76v-72zM623 232q0 100 62 164.5 t159 64.5q91 0 150.5 -65t59.5 -165q0 -99 -62 -163t-157 -64q-92 0 -152 64.5t-60 163.5zM756 198q0 -37 22.5 -61t56.5 -24q84 0 84 85v76q0 78 -84 78q-79 0 -79 -78v-76z" />
<glyph unicode="&#x26;" d="M139 360q0 223 214 377q-166 223 -166 370q0 136 113 227t282 91q156 0 261 -84t105 -208q0 -99 -69.5 -184.5t-263.5 -225.5q-8 -5 -24 -17l272 -370q41 141 41 264l-1 36h193l1 -29q0 -106 -35.5 -225t-88.5 -191l139 -191h-237l-43 57q-117 -69 -268 -69 q-218 0 -330 127q-95 107 -95 245zM335 383q0 -93 72 -155.5t178 -62.5q81 0 148 33l-282 394q-116 -98 -116 -209zM382 1063q0 -83 113 -229q25 20 38 29q135 103 175 147t40 88q0 70 -47.5 109.5t-131.5 39.5t-135.5 -51t-51.5 -133z" />
<glyph unicode="'" d="M506 1403h221l-33 -434h-168z" />
<glyph unicode="(" d="M406 686q0 266 162 491q122 169 248 242h147v-136q-59 -18 -139 -89q-222 -198 -222 -503q0 -154 75 -293q42 -76 96.5 -131.5t160.5 -128.5l29 -20v-131h-150q-189 119 -298 306.5t-109 392.5z" />
<glyph unicode=")" d="M269 -13v131l29 20q183 125 257 260q75 140 75 293q0 305 -222 503q-80 72 -139 89v136h147q126 -73 248 -242q162 -225 162 -491q0 -205 -109 -392.5t-298 -306.5h-150z" />
<glyph unicode="*" d="M142 980l78 191l316 -136l-17 368h194l-27 -368l323 136l83 -201l-345 -96l237 -280l-172 -112l-193 303l-204 -303l-155 112l222 280z" />
<glyph unicode="+" d="M176 628v176h343v420h195v-420h343v-176h-343v-420h-195v420h-343z" />
<glyph unicode="," d="M192 -320l397 675h353v-144l-529 -531h-221z" />
<glyph unicode="-" d="M392 384v223h450v-223h-450z" />
<glyph unicode="." d="M384 0v299h367v-299h-367z" />
<glyph unicode="/" d="M236 -16l584 1442h199l-589 -1442h-194z" />
<glyph unicode="0" d="M145 715q0 411 98 580q41 71 134.5 103t259.5 32q154 0 237.5 -36t123.5 -121q90 -186 90 -568q0 -479 -124 -617q-94 -104 -365 -104q-281 0 -356 139q-98 182 -98 592zM334 716q0 -134 15.5 -276t35.5 -193q19 -49 66.5 -69t145.5 -20q113 0 168.5 15t74.5 50 q60 114 60 445q0 195 -20 344.5t-53 190.5q-21 27 -62 37t-132 10q-108 0 -158.5 -11.5t-73.5 -41.5q-27 -35 -47 -177.5t-20 -303.5z" />
<glyph unicode="1" d="M237 884v242l343 288h213v-1414h-195v1196z" />
<glyph unicode="2" d="M174 113q0 190 57 307q45 92 118.5 163.5t221.5 164.5q157 100 211.5 161t54.5 136q0 87 -67 152.5t-157 65.5q-200 0 -413 -148v210q166 117 386 117q203 0 324.5 -106t121.5 -282q0 -127 -63 -222q-39 -60 -91.5 -102.5t-224.5 -153.5q-150 -98 -216 -184t-66 -184v-27 h642v-181h-831q-8 77 -8 113z" />
<glyph unicode="3" d="M162 68v193q162 -100 354 -100q171 0 267.5 78.5t96.5 217.5q0 110 -87 182t-221 72h-172v149l368 379h-606v175h854v-194l-362 -361q205 -17 313 -124.5t108 -292.5q0 -205 -148.5 -331.5t-390.5 -126.5q-176 0 -374 84z" />
<glyph unicode="4" d="M163 307v212l416 895h201l-429 -926h350v295h195v-295h176v-181h-176v-307h-195v307h-538z" />
<glyph unicode="5" d="M222 -13v172h21l100 -1q88 0 166 15q147 30 229 117.5t82 215.5q0 272 -351 272q-84 0 -149 -7l-71 -8q-5 -1 -27 -3l43 654h712v-177h-539l-24 -283l51 1q260 0 405 -119t145 -332q0 -311 -304 -444q-167 -73 -489 -73z" />
<glyph unicode="6" d="M142 467q0 142 50 270t168 291q139 191 338 386h255l-23 -22q-250 -239 -350 -373l-85 -116q-5 -6 -28 -36q102 42 181 42q188 0 316.5 -131t128.5 -322q0 -213 -130 -342.5t-345 -129.5q-226 0 -351 126.5t-125 356.5zM335 453q0 -128 79 -209t203 -81t203.5 81 t79.5 208q0 119 -80 198.5t-200 79.5q-124 0 -204.5 -78t-80.5 -199z" />
<glyph unicode="7" d="M161 1239v175h930v-56q0 -103 -36 -178.5t-148 -206.5q-204 -239 -276 -390t-72 -338v-245h-195v245q0 181 86 378.5t242 376.5l100 114q54 62 65 125h-696z" />
<glyph unicode="8" d="M141 373q0 278 300 414q-145 97 -195 167t-50 175q0 134 115 217.5t299 83.5q192 0 306 -84t114 -225q0 -94 -48.5 -165t-166.5 -151l-27 -18l41 -25q147 -91 204.5 -175.5t57.5 -210.5q0 -188 -125 -290t-354 -102q-224 0 -347.5 102t-123.5 287zM333 387 q0 -104 79 -166.5t211 -62.5q125 0 200 61t75 162q0 91 -75 173t-207 136l-40 -22q-137 -71 -190 -132.5t-53 -148.5zM388 1104q0 -132 226 -222q104 44 164 103t60 116q0 72 -61 115t-162 43q-105 0 -166 -41.5t-61 -113.5z" />
<glyph unicode="9" d="M138 960q0 211 132 340.5t346 129.5q217 0 347 -131.5t130 -351.5q0 -201 -118.5 -406.5t-409.5 -509.5l-29 -31h-259q330 308 484 550q-95 -41 -183 -41q-186 0 -313 130.5t-127 320.5zM329 967q0 -123 81 -201t209 -78q123 0 202 79.5t79 204.5q0 109 -72 194 q-76 89 -211 89q-127 0 -207.5 -80t-80.5 -208z" />
<glyph unicode=":" d="M384 0v299h367v-299h-367zM384 683v294h367v-294h-367z" />
<glyph unicode=";" d="M221 -308l297 625h394l-461 -625h-230zM560 687v291h352v-291h-352z" />
<glyph unicode="&#x3c;" d="M162 677v66l945 627v-225l-664 -436l655 -434v-226z" />
<glyph unicode="=" d="M180 415v176h872v-176h-872zM180 840v176h872v-176h-872z" />
<glyph unicode="&#x3e;" d="M162 1145v225l945 -627v-66l-936 -628v226l655 434z" />
<glyph unicode="?" d="M255 902v34l21 173q28 94 130 154t234 60q165 0 267 -91t102 -238q0 -180 -136 -308q-82 -77 -95 -95t-13 -55v-68h-193v88q0 55 24 92t119 126q60 57 80.5 97.5t20.5 100.5q0 78 -48.5 128t-123.5 50q-192 0 -192 -224l-1 -24h-196zM531 0v247h274v-247h-274z" />
<glyph unicode="@" d="M154 943q0 181 113 282t315 101q286 0 403 -211q87 -158 87 -580q0 -324 -33 -405q-61 -146 -222 -146q-120 0 -177 105q-65 -105 -191 -105q-149 0 -218.5 93.5t-69.5 293.5q0 205 62 301t194 96q95 0 160 -59v52h162v-502q0 -126 76 -126q95 0 95 231v167l-6 236 q-11 222 -84.5 317t-233.5 95q-136 0 -194.5 -53t-66.5 -183h-171zM323 380q0 -247 134 -247q124 0 124 211q0 132 -37.5 205t-105.5 73q-115 0 -115 -242z" />
<glyph unicode="A" d="M130 0l359 1315h277l336 -1315h-214l-91 380h-373l-96 -380h-198zM468 556h287l-137 589z" />
<glyph unicode="B" d="M167 0v1315h442q132 0 209.5 -21.5t134.5 -74.5q123 -113 123 -268q0 -192 -174 -260q94 -25 151.5 -104.5t57.5 -184.5q0 -163 -113 -285q-109 -117 -316 -117h-515zM359 176h295q125 0 194.5 58t69.5 163q0 93 -69 158q-63 60 -204 60h-286v-439zM359 775h290 q133 0 182 51q52 53 52 120q0 89 -70 141t-191 52h-263v-364z" />
<glyph unicode="C" d="M222 644q0 324 122.5 505.5t340.5 181.5q146 0 241 -87.5t95 -221.5h-186q-11 60 -56.5 96.5t-111.5 36.5q-114 0 -183 -134.5t-69 -355.5q0 -232 68 -368.5t184 -136.5q65 0 112 40.5t56 104.5h196v-15q0 -124 -105.5 -215t-248.5 -91q-208 0 -331.5 180t-123.5 480z " />
<glyph unicode="D" d="M243 0v1315h140q269 0 454 -178q101 -98 158 -232t57 -274q0 -277 -193 -467q-167 -164 -451 -164h-165zM435 177q191 0 307.5 125.5t116.5 331.5q0 202 -127 353t-297 151v-961z" />
<glyph unicode="E" d="M243 0v1315h789v-176h-597v-366h520v-176h-520v-421h619v-176h-811z" />
<glyph unicode="F" d="M342 0v1315h687v-176h-495v-364h397v-176h-397v-599h-192z" />
<glyph unicode="G" d="M162 660q0 209 44.5 336.5t147.5 217.5q136 117 339 117q158 0 251 -80q46 -39 76 -90.5t30 -90.5q0 -3 -1 -14h-192q-31 99 -155 99q-177 0 -262 -120t-85 -369q0 -506 336 -506q77 0 166 33v332h-275v176h467v-640q-196 -77 -376 -77q-248 0 -379.5 174.5t-131.5 501.5 z" />
<glyph unicode="H" d="M197 0v1315h192v-546h454v546h192v-1315h-192v593h-454v-593h-192z" />
<glyph unicode="I" d="M281 0v176h238v963h-199v176h590v-176h-199v-963h241v-176h-671z" />
<glyph unicode="J" d="M221 360v65h195v-84q0 -65 7.5 -92.5t30.5 -50.5q40 -38 104 -38q69 0 106 37q23 23 30 57t7 123v938h192v-974q0 -170 -87.5 -263.5t-245.5 -93.5q-167 0 -253 95t-86 281z" />
<glyph unicode="K" d="M182 0v1315h192v-543l538 543h253l-634 -627l674 -688h-269l-562 597v-597h-192z" />
<glyph unicode="L" d="M242 0v1315h192v-1139h680v-176h-872z" />
<glyph unicode="M" d="M155 0v1315h304l158 -513l154 513h307v-1315h-192v1118l-187 -688h-161l-191 688v-1118h-192z" />
<glyph unicode="N" d="M180 0v1315h231l466 -966v966h176v-1315h-213l-484 1009v-1009h-176z" />
<glyph unicode="O" d="M152 647q0 294 133 489t334 195q197 0 330.5 -193t133.5 -477q0 -301 -130 -489t-337 -188q-202 0 -333 187t-131 476zM345 649q0 -231 71.5 -360t200.5 -129q128 0 200.5 132.5t72.5 369.5q0 225 -73.5 359t-197.5 134q-127 0 -192 -113q-82 -142 -82 -393z" />
<glyph unicode="P" d="M222 0v1315h466q116 0 184.5 -24t132.5 -87q109 -108 109 -279q0 -169 -123 -280q-112 -100 -318 -100h-259v-545h-192zM414 721h264q115 0 179 54.5t64 151.5q0 212 -241 212h-266v-418z" />
<glyph unicode="Q" d="M130 707q0 286 119.5 455t321.5 169q153 0 269 -107q182 -167 182 -528q0 -259 -90 -403l227 -293h-235l-117 150q-98 -79 -232 -79q-145 0 -262 104q-96 85 -139.5 211.5t-43.5 320.5zM323 715q0 -219 67 -343.5t185 -124.5q75 0 123 46l-267 350h232l139 -175 q27 90 27 223q0 219 -66 341.5t-183 122.5q-122 0 -182 -100q-75 -125 -75 -340z" />
<glyph unicode="R" d="M224 0v1315h401q187 0 297 -103t110 -278q0 -138 -70.5 -228.5t-196.5 -116.5l346 -589h-224l-304 548h-167v-548h-192zM416 726h176q247 0 247 204q0 209 -249 209h-174v-413z" />
<glyph unicode="S" d="M200 322q0 11 2 38h189q6 -92 66 -146t156 -54t161.5 55t65.5 136q0 77 -64.5 135.5t-229.5 131.5q-175 77 -244.5 155.5t-69.5 197.5q0 158 115 259t295 101q153 0 265.5 -93t112.5 -220v-29h-194q0 80 -51.5 123t-146.5 43q-89 0 -146 -48t-57 -123q0 -102 139 -169 l155 -74q169 -81 241.5 -171t72.5 -219q0 -159 -118.5 -263t-299.5 -104q-174 0 -294.5 98t-120.5 240z" />
<glyph unicode="T" d="M163 1139v176h909v-176h-361v-1139h-192v1139h-356z" />
<glyph unicode="U" d="M172 424v891h192v-877q0 -145 61.5 -211.5t194.5 -66.5q126 0 198 80q33 37 42 74.5t9 134.5v866h192v-866q0 -131 -20 -203t-73 -132q-115 -130 -358 -130q-210 0 -332 123q-58 59 -82 130.5t-24 186.5z" />
<glyph unicode="V" d="M121 1315h197l301 -1129l298 1129h195l-359 -1315h-277z" />
<glyph unicode="W" d="M143 1189v126h196l-1 -77q0 -511 66 -908l140 479h151l143 -488l8 60q54 451 54 833l-2 101h194v-136q0 -292 -37.5 -615.5t-99.5 -563.5h-214l-121 468l-121 -468h-213q-60 247 -101.5 594.5t-41.5 594.5z" />
<glyph unicode="X" d="M132 0l370 668l-370 647h229l256 -461l268 461h194l-354 -621l377 -694h-217l-268 505l-270 -505h-215z" />
<glyph unicode="Y" d="M143 1315h215l255 -501l264 501h214l-381 -699v-616h-192v616z" />
<glyph unicode="Z" d="M220 0v136l518 1003h-501v176h713v-149l-504 -990h567v-176h-793z" />
<glyph unicode="[" d="M311 0v1431h712v-177h-513v-1076h513v-178h-712z" />
<glyph unicode="\" d="M208 1446h211l598 -1463h-207z" />
<glyph unicode="]" d="M210 0v178h513v1076h-513v177h712v-1431h-712z" />
<glyph unicode="^" d="M142 786l425 643h90l435 -643l-124 -96l-353 371l-350 -371z" />
<glyph unicode="_" d="M-39 -143h1312v-173h-1312v173z" />
<glyph unicode="`" d="M291 1420h249l176 -312h-187z" />
<glyph unicode="a" d="M166 279q0 151 116.5 240.5t313.5 89.5h207v83q0 152 -186 152q-176 0 -215 -113h-192q13 257 408 257q196 0 281 -84t85 -277v-627h-181v97q-122 -114 -287 -114q-159 0 -254.5 81t-95.5 215zM351 291q0 -71 47.5 -117.5t121.5 -46.5q119 0 201 78t82 192v65h-235 q-98 0 -157.5 -47t-59.5 -124z" />
<glyph unicode="b" d="M186 0v1415h181v-555q108 128 299 128t305 -140t114 -375q0 -218 -121 -354.5t-314 -136.5q-166 0 -283 121v-103h-181zM367 488q0 -163 71.5 -254.5t199.5 -91.5q120 0 190.5 92.5t70.5 250.5q0 157 -69.5 250.5t-185.5 93.5q-129 0 -203 -91t-74 -250z" />
<glyph unicode="c" d="M239 487q0 224 119 362.5t311 138.5q151 0 246.5 -72.5t116.5 -202.5h-196q-42 116 -165 116q-247 0 -247 -343q0 -166 61.5 -255t175.5 -89q68 0 118 43t57 107h196q-6 -135 -110 -222t-259 -87q-186 0 -289 110q-62 65 -98.5 172.5t-36.5 221.5z" />
<glyph unicode="d" d="M148 479q0 233 113.5 371t305.5 138q190 0 298 -123v550h181v-1415h-181v106q-122 -123 -284 -123q-196 0 -314.5 136t-118.5 360zM334 496q0 -162 72.5 -258t194.5 -96q120 0 192.5 97t72.5 256q0 156 -74.5 245t-204.5 89q-115 0 -184 -91t-69 -242z" />
<glyph unicode="e" d="M181 487q0 201 106 346q113 153 341 153q209 0 317 -123t108 -361q0 -16 -3 -56h-672l-1 -34q0 -119 81 -194.5t207 -75.5q107 0 151 68h199q-10 -110 -104 -168.5t-260 -58.5q-223 0 -346.5 132.5t-123.5 371.5zM377 604h481q0 100 -63.5 161.5t-167.5 61.5 q-103 0 -171 -60.5t-79 -162.5z" />
<glyph unicode="f" d="M229 813v158h282v83q0 172 89.5 266.5t253.5 94.5h128v-160h-100q-190 0 -190 -189v-95h287v-158h-287v-813h-181v813h-282z" />
<glyph unicode="g" d="M168 536q0 207 107.5 329.5t289.5 122.5q183 0 280 -116v99h181v-958q0 -175 -110 -259t-338 -84q-364 0 -364 220l1 18h188q7 -96 169 -96q182 0 241 64q32 35 32 122v170l-24 -19q-107 -87 -251 -87q-187 0 -294.5 126.5t-107.5 347.5zM353 535q0 -330 250 -330 q114 0 179.5 87.5t65.5 240.5q0 145 -67.5 226.5t-187.5 81.5q-114 0 -177 -80.5t-63 -225.5z" />
<glyph unicode="h" d="M236 0v1415h181v-526q116 99 279 99q136 0 225 -89q54 -55 74 -117.5t20 -174.5v-607h-181v628q0 193 -178 193q-104 0 -173 -65q-39 -37 -52.5 -80t-13.5 -129v-547h-181z" />
<glyph unicode="i" d="M282 788v183h504v-971h-192v788h-312zM512 1172v243h274v-243h-274z" />
<glyph unicode="j" d="M291 -179h160q102 0 153 53q32 33 42 65t10 99v752h-236v181h417v-942q0 -113 -18 -170t-69 -106q-95 -90 -294 -90h-165v158zM582 1170v245h255v-245h-255z" />
<glyph unicode="k" d="M276 0v1415h181v-795l375 351h257l-464 -420l508 -551h-254l-422 460v-460h-181z" />
<glyph unicode="l" d="M392 403v1012h181v-1061q0 -196 213 -196h154v-158h-207q-179 0 -260 96t-81 307z" />
<glyph unicode="m" d="M139 0v971h181v-74q95 91 209 91q60 0 92.5 -15.5t67.5 -61.5q79 77 205 77q101 0 161 -69t60 -183v-736h-181v736q0 111 -93 111q-124 0 -124 -193v-654h-181v741q0 106 -93 106q-123 0 -123 -188v-659h-181z" />
<glyph unicode="n" d="M186 0v971h181v-111q127 128 317 128q165 0 263.5 -97t98.5 -259v-632h-181v646q0 86 -53 134.5t-149 48.5q-133 0 -214.5 -83t-81.5 -218v-528h-181z" />
<glyph unicode="o" d="M142 489q0 225 129.5 362t342.5 137q233 0 354 -140q55 -65 89.5 -164t34.5 -196q0 -220 -134 -362.5t-341 -142.5q-214 0 -344.5 139t-130.5 367zM327 488q0 -168 78 -266t212 -98q133 0 211.5 96t78.5 259q0 173 -74.5 270.5t-207.5 97.5q-138 0 -218 -97t-80 -262z " />
<glyph unicode="p" d="M186 -322v1293h181v-93q129 110 278 110q192 0 316.5 -139.5t124.5 -354.5q0 -230 -120.5 -370.5t-317.5 -140.5q-83 0 -160.5 31.5t-120.5 81.5v-418h-181zM362 484q0 -160 71.5 -251t197.5 -91q127 0 198.5 89t71.5 246q0 352 -267 352q-128 0 -200 -91t-72 -254z" />
<glyph unicode="q" d="M148 481q0 117 44.5 232t111.5 174q116 101 278 101q156 0 288 -116v99h181v-1293h-181v422q-115 -117 -286 -117q-196 0 -316 137.5t-120 360.5zM333 491q0 -349 264 -349q132 0 202.5 91.5t70.5 263.5q0 154 -71.5 243t-195.5 89q-127 0 -198.5 -89.5t-71.5 -248.5z " />
<glyph unicode="r" d="M299 0v971h181v-111q108 128 264 128q129 0 210.5 -81.5t81.5 -210.5q0 -10 -2 -36h-189q1 17 1 26q0 69 -36.5 112.5t-94.5 43.5q-107 0 -181 -99q-54 -72 -54 -220v-523h-181z" />
<glyph unicode="s" d="M204 250h190q10 -71 59.5 -100.5t158.5 -29.5q103 0 167.5 39t64.5 101t-35 90t-137 47q-249 47 -341 113t-92 198q0 280 415 280q159 0 246 -60.5t87 -170.5q0 -9 -2 -30h-189q-11 113 -176 113q-195 0 -195 -121q0 -102 136 -128q266 -52 338 -93q131 -76 131 -227 q0 -137 -115 -212.5t-325 -75.5q-184 0 -285 69.5t-101 197.5z" />
<glyph unicode="t" d="M230 824v158h201v229l181 51v-280h365v-158h-365v-508q0 -83 37 -128.5t105 -45.5q50 0 114.5 22.5t108.5 54.5v-179q-87 -57 -227 -57q-156 0 -237.5 89.5t-81.5 261.5v490h-201z" />
<glyph unicode="u" d="M186 316v655h181v-655q0 -174 193 -174q135 0 223 88q79 79 79 228v513h181v-971h-181v112q-131 -129 -341 -129q-152 0 -243.5 90.5t-91.5 242.5z" />
<glyph unicode="v" d="M121 971h206l290 -840l307 840h187l-360 -971h-276z" />
<glyph unicode="w" d="M141 971h191l76 -733l112 355h195l112 -376l79 754h185l-118 -971h-236l-121 406l-119 -406h-232z" />
<glyph unicode="x" d="M143 0l356 491l-356 480h254l222 -349l219 349h215l-334 -480l371 -491h-234l-252 374l-247 -374h-214z" />
<glyph unicode="y" d="M112 971h230l296 -560l313 560h190l-605 -1111q-103 -190 -279 -190h-75v161h73q56 0 82 46l18 31l186 328z" />
<glyph unicode="z" d="M222 0v188l541 625h-504v158h710v-178l-546 -635h588v-158h-789z" />
<glyph unicode="{" d="M174 621v176h39q172 0 211 37t39 198q0 152 42.5 238t138.5 129q94 42 343 42h62v-178h-85q-194 0 -252 -40t-58 -176q0 -171 -25.5 -239t-102.5 -100q77 -35 105.5 -95.5t28.5 -187.5q0 -169 54.5 -216.5t249.5 -47.5h95v-177l-64 -1q-182 0 -269 18t-145 67 q-113 95 -113 334q0 140 -44 179.5t-201 39.5h-49z" />
<glyph unicode="|" d="M521 125v1065h192v-1065h-192z" />
<glyph unicode="}" d="M174 -16v177h94q196 0 250.5 47t54.5 217q0 127 28.5 188t105.5 95q-77 32 -103 100t-26 239q0 136 -57.5 176t-252.5 40h-85v178h62q249 0 343 -42q96 -43 139 -129t43 -238q0 -161 39 -198t211 -37h39v-176h-49q-158 0 -201.5 -39t-43.5 -180q0 -239 -113 -334 q-59 -49 -146 -67t-269 -18z" />
<glyph unicode="~" d="M143 1184q109 236 276 236q70 0 218 -71q132 -63 186 -63q89 0 165 127l103 -71q-111 -238 -276 -238q-61 0 -214 72q-135 63 -188 63q-89 0 -167 -126z" />
<glyph unicode="&#xa0;" />
<glyph unicode="&#xa1;" d="M579 0l40 885h195l35 -885h-270zM579 1187v227h270v-227h-270z" />
<glyph unicode="&#xa2;" d="M213 684q0 194 92.5 327.5t247.5 164.5v238h154v-233q262 -36 300 -271h-196q-27 73 -104 106v-662q94 45 104 135h196q-5 -119 -85 -200t-215 -103v-186h-154v186q-158 28 -249 161t-91 337zM398 683q0 -137 36 -213.5t119 -113.5v652q-155 -67 -155 -325z" />
<glyph unicode="&#xa3;" d="M180 0v180h141l110 468h-210v178h250l62 263q81 341 326 341q109 0 190 -84v-182h-54q-55 84 -132 84q-100 0 -128 -125l-67 -297h221v-178h-263l-111 -468h534v-180h-869z" />
<glyph unicode="&#xa4;" d="M128 363l152 150q-59 138 -59 208q0 67 59 204l-152 148l133 133l149 -150q137 59 206 59t206 -59l149 150l133 -133l-152 -148q59 -136 59 -204q0 -70 -59 -208l152 -150l-133 -133l-149 154q-137 -58 -206 -58t-208 59l-147 -155zM390 720q0 -93 66 -159t160 -66 t160 66t66 159q0 94 -66 160t-160 66t-160 -66t-66 -160z" />
<glyph unicode="&#xa5;" d="M131 1320h215l270 -357l256 357h231l-404 -536v-212h343v-178h-343v-394h-167v394h-343v178h343v212z" />
<glyph unicode="&#xa6;" d="M521 125v408h192v-408h-192zM521 782v408h192v-408h-192z" />
<glyph unicode="&#xa7;" d="M159 730q0 116 109 200q-68 84 -68 179q0 152 116.5 244t308.5 92q191 0 296.5 -84t105.5 -236h-203q0 144 -202 144q-99 0 -159.5 -37.5t-60.5 -99.5q0 -68 54.5 -101t184.5 -44q152 -12 225 -32.5t120 -63.5q81 -73 81 -187q0 -101 -83 -185q91 -81 91 -213 q0 -149 -119 -235.5t-324 -86.5q-444 0 -472 340h204q21 -169 263 -169q114 0 178.5 40t64.5 111q0 61 -47 96q-39 28 -197 40q-244 17 -328 58q-139 68 -139 230zM354 741q0 -55 50 -81t173 -35l113 -8q70 -5 133 -23q54 37 54 92q0 61 -62 91q-41 21 -194 31 q-166 11 -214 28q-53 -44 -53 -95z" />
<glyph unicode="&#xa8;" d="M345 1127v293h193v-293h-193zM695 1127v293h193v-293h-193z" />
<glyph unicode="&#xa9;" d="M1 659q0 283 181 483t438 200q253 0 433 -200.5t180 -482.5q0 -283 -180 -484t-433 -201q-256 0 -437.5 200.5t-181.5 484.5zM103 659q0 -244 151.5 -416.5t365.5 -172.5q211 0 361 172.5t150 416.5q0 242 -150 414.5t-361 172.5q-215 0 -366 -172t-151 -415zM314 650 q0 191 81 301.5t221 110.5q105 0 168 -53t63 -143h-133q-15 79 -107 79q-70 0 -112 -79.5t-42 -210.5q0 -129 43 -207t114 -78q91 0 104 86h139q1 -10 1 -13q0 -78 -70 -134t-167 -56q-138 0 -220.5 108t-82.5 289z" />
<glyph unicode="&#xaa;" d="M294 546v157h595v-157h-595zM333 970q0 97 73.5 154t197.5 57h111v36q0 79 -99 79q-94 0 -116 -55h-141q9 167 258 167q125 0 179 -53.5t54 -175.5v-390h-135v58q-69 -68 -167 -68q-95 0 -155 53t-60 138zM471 977q0 -38 25 -62t63 -24q66 0 111 47t45 115v13h-128 q-52 0 -84 -24.5t-32 -64.5z" />
<glyph unicode="&#xab;" d="M155 473l385 383l138 -138l-247 -245l247 -244l-138 -138zM550 473l384 383l138 -138l-246 -245l246 -244l-138 -138z" />
<glyph unicode="&#xac;" d="M123 320v184h988v-504h-184v320h-804z" />
<glyph unicode="&#xad;" d="M392 384v223h450v-223h-450z" />
<glyph unicode="&#xae;" d="M1 659q0 283 181 483t438 200q253 0 433 -200.5t180 -482.5q0 -283 -180 -484t-433 -201q-256 0 -437.5 200.5t-181.5 484.5zM103 659q0 -244 151.5 -416.5t365.5 -172.5q211 0 361 172.5t150 416.5q0 242 -150 414.5t-361 172.5q-215 0 -366 -172t-151 -415zM345 263 v789h267q124 0 197.5 -62.5t73.5 -168.5q0 -81 -45 -136.5t-124 -71.5l226 -350h-161l-198 324h-98v-324h-138zM483 705h108q153 0 153 114q0 116 -155 116h-106v-230z" />
<glyph unicode="&#xaf;" d="M323 1180v188h587v-188h-587z" />
<glyph unicode="&#xb0;" d="M321 1032q0 122 87 209t209 87q123 0 209.5 -86.5t86.5 -209.5t-86.5 -209.5t-209.5 -86.5q-122 0 -209 86.5t-87 209.5zM469 1032q0 -61 43.5 -104.5t104.5 -43.5t104.5 43.5t43.5 104.5t-43.5 104.5t-104.5 43.5t-104.5 -43.5t-43.5 -104.5z" />
<glyph unicode="&#xb1;" d="M176 0v225h881v-225h-881zM176 693v176h343v355h195v-355h343v-176h-343v-354h-195v354h-343z" />
<glyph unicode="&#xb2;" d="M316 615q0 137 55 217t209 167q99 56 133 89t34 72q0 46 -40.5 79.5t-96.5 33.5q-118 0 -245 -76l-12 -8l-20 -12v153l14 8q105 65 249 65q138 0 221 -65t83 -173q0 -90 -46.5 -143t-206.5 -146q-177 -102 -177 -204h418v-131h-565q-7 40 -7 74z" />
<glyph unicode="&#xb3;" d="M308 585v143q120 -67 243 -67q105 0 164 41.5t59 116.5q0 59 -52.5 97t-133.5 38h-125v105l218 201h-373v128h581v-132l-217 -193q255 -36 255 -252q0 -125 -100.5 -202t-262.5 -77q-119 0 -256 53z" />
<glyph unicode="&#xb4;" d="M518 1108l176 312h249l-238 -312h-187z" />
<glyph unicode="&#xb5;" d="M186 -316v1287h181v-655q0 -174 193 -174q135 0 223 88q79 79 79 228v513h181v-971h-181v112q-131 -129 -342 -129q-84 0 -153 29v-328h-181z" />
<glyph unicode="&#xb6;" d="M156 925q0 171 109 279q64 63 132.5 87t184.5 24h466v-176h-66v-1455h-162v1455h-65v-1455h-162v860h-9q-194 0 -311 104.5t-117 276.5z" />
<glyph unicode="&#xb8;" d="M487 -316l130 365h173l-90 -365h-213z" />
<glyph unicode="&#xb9;" d="M357 1041v173l232 174h156v-847h-153v680z" />
<glyph unicode="&#xba;" d="M319 1082q0 141 81.5 227t214.5 86q136 0 218 -85.5t82 -228.5q0 -138 -84 -227t-215 -89q-133 0 -215 87.5t-82 229.5zM320 546v157h594v-157h-594zM457 1081q0 -94 43 -149.5t117 -55.5t117 54.5t43 146.5q0 207 -156 207q-75 0 -119.5 -54.5t-44.5 -148.5z" />
<glyph unicode="&#xbb;" d="M160 229l247 244l-247 245l138 138l385 -383l-385 -382zM555 229l246 244l-246 245l138 138l384 -383l-384 -382z" />
<glyph unicode="&#xbc;" d="M54 1041v173l232 174h156v-847h-153v680zM321 0v103l499 1285h93v-111l-488 -1277h-104zM611 178v140l276 529h160l-279 -537h193v171h153v-171h114v-132h-114v-178h-153v178h-350z" />
<glyph unicode="&#xbd;" d="M54 1041v173l232 174h156v-847h-153v680zM321 0v103l499 1285h93v-111l-488 -1277h-104zM751 84q0 116 41.5 199t140.5 166q76 64 96 91t20 66q0 51 -27 82t-71 31q-85 0 -185 -83v152q86 74 197 74q108 0 173.5 -65.5t65.5 -172.5q0 -90 -32 -143t-144 -146 q-122 -102 -122 -204h286v-131h-435q-4 49 -4 84z" />
<glyph unicode="&#xbe;" d="M6 585v143l16 -10q82 -57 182 -57q177 0 177 158q0 59 -45.5 97t-115.5 38h-73v105l193 201h-334v128h516v-132l-191 -193q203 -36 203 -252q0 -125 -88 -202t-230 -77q-98 0 -210 53zM322 0v103l498 1285h93v-111l-487 -1277h-104zM611 178v140l276 529h160l-279 -537 h193v171h153v-171h114v-132h-114v-178h-153v178h-350z" />
<glyph unicode="&#xbf;" d="M224 321q0 180 136 308q82 79 95 96.5t13 54.5v68h193v-89q0 -54 -24.5 -91.5t-118.5 -126.5q-59 -57 -80 -97.5t-21 -100.5q0 -77 48.5 -127.5t123.5 -50.5q192 0 192 224l1 24h196v-34l-21 -173q-28 -94 -130 -154t-234 -60q-165 0 -267 91t-102 238zM428 1068v247h274 v-247h-274z" />
<glyph unicode="&#xc0;" d="M144 0l253 973h432l261 -973h-203l-64 250h-427l-59 -250h-193zM291 1420h249l176 -312h-187zM440 426h339l-92 371h-156z" />
<glyph unicode="&#xc1;" d="M144 0l253 973h432l261 -973h-203l-64 250h-427l-59 -250h-193zM440 426h339l-92 371h-156zM518 1108l176 312h249l-238 -312h-187z" />
<glyph unicode="&#xc2;" d="M144 0l253 973h432l261 -973h-203l-64 250h-427l-59 -250h-193zM216 1111l250 309h298l253 -309h-225l-177 187l-172 -187h-227zM440 426h339l-92 371h-156z" />
<glyph unicode="&#xc3;" d="M144 0l253 973h432l261 -973h-203l-64 250h-427l-59 -250h-193zM230 1142v15q0 121 63 194t168 73q91 0 187 -72q72 -54 104 -54q61 0 69 107h182v-17q0 -115 -64 -190t-163 -75q-97 0 -184 64l-33 25q-51 37 -83 37q-60 0 -67 -107h-179zM440 426h339l-92 371h-156z" />
<glyph unicode="&#xc4;" d="M130 0l396 1315h176l402 -1315h-200l-80 270h-424l-77 -270h-193zM143 1171v259h192v-259h-192zM451 446h321l-130 454l-7 26q-12 42 -22 86l-3 11l-3 -14q-6 -25 -11 -43l-9 -36l-8 -28zM886 1171v259h192v-259h-192z" />
<glyph unicode="&#xc5;" d="M144 0l232 887q-149 98 -149 251q0 138 99 212.5t281 74.5q183 0 282.5 -76t99.5 -216q0 -157 -139 -246l240 -887h-203l-64 250h-427l-59 -250h-193zM403 1128q0 -72 54.5 -112t152.5 -40q203 0 203 148q0 147 -205 147t-205 -143zM440 426h339l-102 406q-34 -6 -65 -6 t-73 6z" />
<glyph unicode="&#xc6;" d="M136 0l262 1315h641v-176h-288l27 -360h261v-176h-248l32 -427h231v-176h-399l-23 334h-252l-67 -334h-177zM413 510h208l-40 629h-46z" />
<glyph unicode="&#xc7;" d="M222 644q0 324 122.5 505.5t340.5 181.5q146 0 241 -87.5t95 -221.5h-186q-11 60 -56.5 96.5t-111.5 36.5q-114 0 -183 -134.5t-69 -355.5q0 -231 68 -368t184 -137q65 0 112 40.5t56 104.5h196v-15q0 -98 -71 -180.5t-182 -112.5l-78 -313h-212l109 307 q-176 37 -275.5 210t-99.5 443z" />
<glyph unicode="&#xc8;" d="M243 0v973h789v-176h-597v-195h520v-176h-520v-250h619v-176h-811zM317 1420h249l176 -312h-187z" />
<glyph unicode="&#xc9;" d="M243 0v973h789v-176h-597v-195h520v-176h-520v-250h619v-176h-811zM544 1108l176 312h249l-238 -312h-187z" />
<glyph unicode="&#xca;" d="M243 0v973h790v-176h-598v-195h520v-176h-520v-250h620v-176h-812zM243 1111l249 309h298l254 -309h-225l-178 187l-171 -187h-227z" />
<glyph unicode="&#xcb;" d="M243 0v973h789v-176h-597v-195h520v-176h-520v-250h619v-176h-811zM371 1127v293h193v-293h-193zM721 1127v293h193v-293h-193z" />
<glyph unicode="&#xcc;" d="M281 0v176h238v621h-199v176h590v-176h-199v-621h241v-176h-671zM291 1420h249l176 -312h-187z" />
<glyph unicode="&#xcd;" d="M281 0v176h238v621h-199v176h590v-176h-199v-621h241v-176h-671zM518 1108l176 312h249l-238 -312h-187z" />
<glyph unicode="&#xce;" d="M216 1111l249 309h298l254 -309h-225l-178 187l-171 -187h-227zM281 0v176h238v621h-199v176h589v-176h-198v-621h241v-176h-671z" />
<glyph unicode="&#xcf;" d="M281 0v176h238v621h-199v176h590v-176h-199v-621h241v-176h-671zM345 1127v293h193v-293h-193zM695 1127v293h193v-293h-193z" />
<glyph unicode="&#xd0;" d="M91 563v188h152v564h140q270 0 454 -178q101 -98 158 -232t57 -274q0 -277 -193 -467q-166 -164 -451 -164h-165v563h-152zM435 177q191 0 307.5 125t116.5 332q0 202 -127 353t-297 151v-387h204v-188h-204v-386z" />
<glyph unicode="&#xd1;" d="M210 0v973h235l400 -708v708h178v-973h-236l-399 703v-703h-178zM232 1159v15q0 121 63 194.5t166 73.5q90 0 186 -72q72 -55 103 -55q61 0 69 107h181v-17q0 -115 -63.5 -189.5t-162.5 -74.5q-96 0 -182 64l-34 25q-50 37 -81 37q-61 0 -67 -108h-178z" />
<glyph unicode="&#xd2;" d="M156 487q0 223 128 362.5t332 139.5q203 0 331 -139.5t128 -362.5q0 -214 -132 -358.5t-327 -144.5q-196 0 -328 144.5t-132 358.5zM291 1420h249l176 -312h-187zM364 492q0 -150 69 -241t183 -91q113 0 182 91t69 241q0 151 -66.5 236t-184.5 85q-119 0 -185.5 -85 t-66.5 -236z" />
<glyph unicode="&#xd3;" d="M156 487q0 223 128 362.5t332 139.5q203 0 331 -139.5t128 -362.5q0 -214 -132 -358.5t-327 -144.5q-196 0 -328 144.5t-132 358.5zM364 492q0 -150 69 -241t183 -91q113 0 182 91t69 241q0 151 -66.5 236t-184.5 85q-119 0 -185.5 -85t-66.5 -236zM519 1108l176 312h248 l-238 -312h-186z" />
<glyph unicode="&#xd4;" d="M156 487q0 223 128 362.5t332 139.5q203 0 331 -139.5t128 -362.5q0 -214 -132 -358.5t-327 -144.5q-196 0 -328 144.5t-132 358.5zM217 1111l249 309h298l254 -309h-225l-178 187l-171 -187h-227zM364 492q0 -150 69 -241t183 -91q113 0 182 91t69 241q0 151 -66.5 236 t-184.5 85q-119 0 -185.5 -85t-66.5 -236z" />
<glyph unicode="&#xd5;" d="M156 487q0 223 128 362.5t332 139.5q203 0 331 -139.5t128 -362.5q0 -214 -132 -358.5t-327 -144.5q-196 0 -328 144.5t-132 358.5zM230 1142v15q0 121 63.5 194t167.5 73q91 0 187 -72q72 -54 104 -54q62 0 70 107h182v-17q0 -115 -64.5 -190t-162.5 -75t-184 64l-34 25 q-50 37 -82 37q-60 0 -67 -107h-180zM364 492q0 -150 69 -241t183 -91q113 0 182 91t69 241q0 151 -66.5 236t-184.5 85q-119 0 -185.5 -85t-66.5 -236z" />
<glyph unicode="&#xd6;" d="M141 1167v263h192v-263h-192zM155 568q0 249 131.5 415.5t328.5 166.5t328.5 -166.5t131.5 -415.5q0 -238 -136 -411t-324 -173t-324 173t-136 411zM363 572q0 -186 69 -299t183 -113t183 113t69 299q0 190 -66.5 296t-185.5 106t-185.5 -106t-66.5 -296zM885 1167v263 h192v-263h-192z" />
<glyph unicode="&#xd7;" d="M251 478l242 241l-242 242l130 130l242 -242l242 242l130 -130l-242 -242l242 -241l-130 -131l-242 242l-242 -242z" />
<glyph unicode="&#xd8;" d="M158 660q0 596 445 596q56 0 106 -10l33 115h150l-47 -163q230 -111 230 -571q0 -313 -136 -451q-117 -119 -300 -119q-38 0 -118 10l-32 -109h-153l48 157q-226 151 -226 545zM351 676q0 -138 19 -223.5t65 -153.5l229 788q-22 7 -54 7q-259 0 -259 -418zM567 225 q40 -6 65 -6q250 0 250 419q0 265 -87 375z" />
<glyph unicode="&#xd9;" d="M150 520v453h192v-449q0 -195 63.5 -279.5t209.5 -84.5q153 0 222 101q33 48 43 98t10 165v449h192v-456q0 -235 -54 -332q-112 -201 -407 -201q-299 0 -412 206q-59 107 -59 330zM291 1420h248l176 -312h-186z" />
<glyph unicode="&#xda;" d="M150 520v453h192v-449q0 -195 63.5 -279.5t209.5 -84.5q153 0 222 101q33 48 43 98t10 165v449h192v-456q0 -235 -54 -332q-112 -201 -407 -201q-299 0 -412 206q-59 107 -59 330zM518 1108l176 312h249l-238 -312h-187z" />
<glyph unicode="&#xdb;" d="M150 520v453h192v-449q0 -195 63.5 -279.5t209.5 -84.5q153 0 222 101q33 48 43 98t10 165v449h192v-456q0 -235 -54 -332q-112 -201 -407 -201q-299 0 -412 206q-59 107 -59 330zM216 1111l249 309h298l254 -309h-225l-177 187l-172 -187h-227z" />
<glyph unicode="&#xdc;" d="M150 519v567h192v-562q0 -195 63.5 -279.5t209.5 -84.5q153 0 222 101q33 48 43 98t10 164v563h192v-569q0 -235 -54 -332q-112 -201 -407 -201q-299 0 -412 205q-59 107 -59 330zM150 1276v154h286v-154h-286zM795 1276v154h287v-154h-287z" />
<glyph unicode="&#xdd;" d="M143 973h215l255 -395l264 395h214l-381 -567v-406h-192v406zM518 1108l176 312h249l-238 -312h-187z" />
<glyph unicode="&#xde;" d="M222 0v1315h192v-263h274q116 0 184.5 -24t132.5 -87q109 -108 109 -280q0 -169 -123 -280q-112 -100 -318 -100h-259v-281h-192zM414 457h264q115 0 179 54.5t64 152.5q0 212 -241 212h-266v-419z" />
<glyph unicode="&#xdf;" d="M184 0v1006q0 177 119 287.5t310 110.5q188 0 312 -103.5t124 -260.5q0 -100 -44.5 -168.5t-149.5 -131.5q235 -85 235 -347q0 -169 -103.5 -281t-258.5 -112h-71v161h49q108 0 153.5 53t45.5 179q0 122 -58.5 188.5t-165.5 66.5h-63v177h59q86 0 136.5 56t50.5 150 q0 101 -62 157.5t-173 56.5q-140 0 -202 -71t-62 -232v-942h-181z" />
<glyph unicode="&#xe0;" d="M166 279q0 151 116.5 240.5t313.5 89.5h207v83q0 152 -186 152q-176 0 -215 -113h-192q13 257 408 257q196 0 281 -84t85 -277v-627h-181v97q-122 -114 -287 -114q-159 0 -254.5 81t-95.5 215zM265 1420h249l176 -312h-187zM351 291q0 -71 47.5 -117.5t121.5 -46.5 q119 0 201 78t82 192v65h-235q-98 0 -157.5 -47t-59.5 -124z" />
<glyph unicode="&#xe1;" d="M166 279q0 151 116.5 240.5t313.5 89.5h207v83q0 152 -186 152q-176 0 -215 -113h-192q13 257 408 257q196 0 281 -84t85 -277v-627h-181v97q-122 -114 -287 -114q-159 0 -254.5 81t-95.5 215zM351 291q0 -71 47.5 -117.5t121.5 -46.5q119 0 201 78t82 192v65h-235 q-98 0 -157.5 -47t-59.5 -124zM492 1108l176 312h249l-238 -312h-187z" />
<glyph unicode="&#xe2;" d="M166 279q0 151 116.5 240.5t313.5 89.5h207v83q0 152 -186 152q-176 0 -215 -113h-192q13 257 408 257q196 0 281 -84t85 -277v-627h-181v97q-122 -114 -287 -114q-159 0 -254.5 81t-95.5 215zM190 1111l249 309h298l254 -309h-225l-178 187l-171 -187h-227zM351 291 q0 -71 47.5 -117.5t121.5 -46.5q119 0 201 78t82 192v65h-235q-98 0 -157.5 -47t-59.5 -124z" />
<glyph unicode="&#xe3;" d="M166 279q0 151 116.5 240.5t313.5 89.5h207v83q0 152 -186 152q-176 0 -215 -113h-192q13 257 408 257q196 0 281 -84t85 -277v-627h-181v97q-122 -114 -287 -114q-159 0 -254.5 81t-95.5 215zM203 1142v15q0 121 63 194t168 73q90 0 187 -72q72 -54 104 -54q61 0 69 107 h182q0 -129 -61.5 -205.5t-165.5 -76.5q-97 0 -184 64l-33 25q-50 37 -82 37q-61 0 -67 -107h-180zM351 291q0 -71 47.5 -117.5t121.5 -46.5q119 0 201 78t82 192v65h-235q-98 0 -157.5 -47t-59.5 -124z" />
<glyph unicode="&#xe4;" d="M166 279q0 151 116.5 240.5t313.5 89.5h207v83q0 152 -186 152q-176 0 -215 -113h-192q13 257 408 257q196 0 281 -84t85 -277v-627h-181v97q-122 -114 -287 -114q-159 0 -254.5 81t-95.5 215zM319 1127v293h193v-293h-193zM351 291q0 -71 47.5 -117.5t121.5 -46.5 q119 0 201 78t82 192v65h-235q-98 0 -157.5 -47t-59.5 -124zM669 1127v293h193v-293h-193z" />
<glyph unicode="&#xe5;" d="M185 284q0 197 176 284q106 51 365 51h106v24q0 189 -214 189q-162 0 -211 -113h-175q17 128 131 188q-66 48 -91.5 95.5t-25.5 122.5q0 137 98 216t268 79q166 0 265.5 -80.5t99.5 -213.5q0 -139 -113 -219q92 -35 120.5 -99t28.5 -237v-571h-181v126q-95 -85 -161 -114 t-161 -29q-148 0 -236.5 82t-88.5 219zM370 294q0 -69 48 -110.5t127 -41.5q125 0 200.5 83t86.5 232h-60q-214 0 -286 -23q-116 -36 -116 -140zM404 1121q0 -151 205 -151q211 0 211 153q0 73 -57.5 115.5t-154.5 42.5q-95 0 -149.5 -43t-54.5 -117z" />
<glyph unicode="&#xe6;" d="M160 276q0 181 73.5 248.5t271.5 67.5h28v96q0 150 -96 150q-90 0 -100 -117h-173q0 267 265 267q140 0 189 -96q58 96 195 96q122 0 190 -69q41 -41 55.5 -97t14.5 -176v-203h-371v-132q0 -92 23.5 -130.5t79.5 -38.5q98 0 98 149h170l1 -40q0 -128 -66.5 -198 t-187.5 -70q-152 0 -202 117q-58 -117 -209 -117q-249 0 -249 293zM345 292q0 -150 85 -150q46 0 74.5 40.5t28.5 105.5v67v88h-19q-97 0 -133 -32.5t-36 -118.5zM702 592h201v108q0 138 -101 138q-100 0 -100 -139v-107z" />
<glyph unicode="&#xe7;" d="M239 487q0 224 119 362.5t311 138.5q151 0 246.5 -72.5t116.5 -202.5h-196q-42 116 -165 116q-247 0 -247 -343q0 -166 61.5 -255t175.5 -89q68 0 118 43t57 107h196q-5 -106 -73 -185.5t-181 -109.5l-78 -313h-212l107 302q-165 23 -260.5 157t-95.5 344z" />
<glyph unicode="&#xe8;" d="M181 487q0 201 106 346q113 153 341 153q209 0 317 -123t108 -361q0 -16 -3 -56h-672l-1 -34q0 -119 81 -194.5t207 -75.5q107 0 151 68h199q-10 -110 -104 -168.5t-260 -58.5q-223 0 -346.5 132.5t-123.5 371.5zM291 1420h249l176 -312h-187zM377 604h481 q0 100 -63.5 161.5t-167.5 61.5q-103 0 -171 -60.5t-79 -162.5z" />
<glyph unicode="&#xe9;" d="M181 487q0 201 106 346q113 153 341 153q209 0 317 -123t108 -361q0 -16 -3 -56h-672l-1 -34q0 -119 81 -194.5t207 -75.5q107 0 151 68h199q-10 -110 -104 -168.5t-260 -58.5q-223 0 -346.5 132.5t-123.5 371.5zM377 604h481q0 100 -63.5 161.5t-167.5 61.5 q-103 0 -171 -60.5t-79 -162.5zM518 1108l176 312h249l-238 -312h-187z" />
<glyph unicode="&#xea;" d="M181 487q0 201 106 346q113 153 341 153q209 0 317 -123t108 -361q0 -16 -3 -56h-672l-1 -34q0 -119 81 -194.5t207 -75.5q107 0 151 68h199q-10 -110 -104 -168.5t-260 -58.5q-223 0 -346.5 132.5t-123.5 371.5zM216 1111l249 309h298l254 -309h-225l-178 187l-171 -187 h-227zM377 604h481q0 100 -63.5 161.5t-167.5 61.5q-103 0 -171 -60.5t-79 -162.5z" />
<glyph unicode="&#xeb;" d="M181 487q0 201 106 346q113 153 341 153q209 0 317 -123t108 -361q0 -16 -3 -56h-672l-1 -34q0 -119 81 -194.5t207 -75.5q107 0 151 68h199q-10 -110 -104 -168.5t-260 -58.5q-223 0 -346.5 132.5t-123.5 371.5zM345 1127v293h193v-293h-193zM377 604h481 q0 100 -63.5 161.5t-167.5 61.5q-103 0 -171 -60.5t-79 -162.5zM695 1127v293h193v-293h-193z" />
<glyph unicode="&#xec;" d="M282 788v183h504v-971h-192v788h-312zM357 1420h249l176 -312h-187z" />
<glyph unicode="&#xed;" d="M282 788v183h504v-971h-192v788h-312zM584 1108l176 312h249l-238 -312h-187z" />
<glyph unicode="&#xee;" d="M216 1111l249 309h298l254 -309h-225l-178 187l-171 -187h-227zM281 788v183h504v-971h-192v788h-312z" />
<glyph unicode="&#xef;" d="M282 788v183h504v-971h-192v788h-312zM345 1127v293h193v-293h-193zM695 1127v293h193v-293h-193z" />
<glyph unicode="&#xf0;" d="M141 456q0 191 129 322t317 131q79 0 180 -42q-23 30 -27 36l-86 116q-24 32 -67 82l-191 -111l-81 140l160 93l-13 14q-64 65 -157 155l-24 22h256q43 -43 89 -91l8 -9l190 110l81 -140l-161 -93q192 -225 270.5 -388.5t78.5 -335.5q0 -230 -125 -356.5t-352 -126.5 q-214 0 -344.5 129.5t-130.5 342.5zM331 453q0 -146 79.5 -238t205.5 -92t206.5 92t80.5 237q0 136 -81 227t-202 91q-126 0 -207.5 -89t-81.5 -228z" />
<glyph unicode="&#xf1;" d="M186 0v971h181v-111q127 128 317 128q165 0 263.5 -97t98.5 -259v-632h-181v646q0 86 -53 134.5t-149 48.5q-133 0 -214.5 -83t-81.5 -218v-528h-181zM230 1142v15q0 121 63 194t168 73q90 0 187 -72q72 -54 104 -54q61 0 69 107h182q0 -129 -61.5 -205.5t-165.5 -76.5 q-97 0 -184 64l-33 25q-50 37 -82 37q-61 0 -67 -107h-180z" />
<glyph unicode="&#xf2;" d="M142 489q0 225 129.5 362t342.5 137q233 0 354 -140q55 -65 89.5 -164t34.5 -196q0 -220 -134 -362.5t-341 -142.5q-214 0 -344.5 139t-130.5 367zM291 1420h249l176 -312h-187zM327 488q0 -168 78 -266t212 -98q133 0 211.5 96t78.5 259q0 173 -74.5 270.5t-207.5 97.5 q-138 0 -218 -97t-80 -262z" />
<glyph unicode="&#xf3;" d="M142 489q0 225 129.5 362t342.5 137q233 0 354 -140q55 -65 89.5 -164t34.5 -196q0 -220 -134 -362.5t-341 -142.5q-214 0 -344.5 139t-130.5 367zM327 488q0 -168 78 -266t212 -98q133 0 211.5 96t78.5 259q0 173 -74.5 270.5t-207.5 97.5q-138 0 -218 -97t-80 -262z M518 1108l176 312h249l-238 -312h-187z" />
<glyph unicode="&#xf4;" d="M142 489q0 225 129.5 362t342.5 137q233 0 354 -140q55 -65 89.5 -164t34.5 -196q0 -220 -134 -362.5t-341 -142.5q-214 0 -344.5 139t-130.5 367zM216 1111l249 309h298l254 -309h-225l-178 187l-171 -187h-227zM327 488q0 -168 78 -266t212 -98q133 0 211.5 96 t78.5 259q0 173 -74.5 270.5t-207.5 97.5q-138 0 -218 -97t-80 -262z" />
<glyph unicode="&#xf5;" d="M142 489q0 225 129.5 362t342.5 137q233 0 354 -140q55 -65 89.5 -164t34.5 -196q0 -220 -134 -362.5t-341 -142.5q-214 0 -344.5 139t-130.5 367zM230 1142v15q0 121 63 194t168 73q90 0 187 -72q72 -54 104 -54q61 0 69 107h182q0 -129 -61.5 -205.5t-165.5 -76.5 q-97 0 -184 64l-33 25q-50 37 -82 37q-61 0 -67 -107h-180zM327 488q0 -168 78 -266t212 -98q133 0 211.5 96t78.5 259q0 173 -74.5 270.5t-207.5 97.5q-138 0 -218 -97t-80 -262z" />
<glyph unicode="&#xf6;" d="M142 489q0 225 129.5 362t342.5 137q233 0 354 -140q55 -65 89.5 -164t34.5 -196q0 -220 -134 -362.5t-341 -142.5q-214 0 -344.5 139t-130.5 367zM327 488q0 -168 78 -266t212 -98q133 0 211.5 96t78.5 259q0 173 -74.5 270.5t-207.5 97.5q-138 0 -218 -97t-80 -262z M345 1127v293h193v-293h-193zM695 1127v293h193v-293h-193z" />
<glyph unicode="&#xf7;" d="M176 603v225h881v-225h-881zM501 212v231h231v-231h-231zM501 989v226h231v-226h-231z" />
<glyph unicode="&#xf8;" d="M153 494q0 225 126.5 359.5t336.5 134.5q104 0 186 -26l93 170h159l-135 -246q160 -134 160 -405q0 -225 -127 -361.5t-335 -136.5q-82 0 -175 30l-103 -187h-157l141 258q-170 155 -170 410zM339 494q0 -156 71 -253l311 577q-55 11 -95 11q-135 0 -211 -89t-76 -246z M523 159q55 -17 99 -17q124 0 198 92.5t74 247.5t-63 242z" />
<glyph unicode="&#xf9;" d="M186 316v655h181v-655q0 -174 193 -174q135 0 223 88q79 79 79 228v513h181v-971h-181v112q-131 -129 -341 -129q-152 0 -243.5 90.5t-91.5 242.5zM291 1420h249l176 -312h-187z" />
<glyph unicode="&#xfa;" d="M186 316v655h181v-655q0 -174 193 -174q135 0 223 88q79 79 79 228v513h181v-971h-181v112q-131 -129 -341 -129q-152 0 -243.5 90.5t-91.5 242.5zM518 1108l176 312h249l-238 -312h-187z" />
<glyph unicode="&#xfb;" d="M186 316v655h181v-655q0 -174 193 -174q135 0 223 88q79 79 79 228v513h181v-971h-181v112q-131 -129 -341 -129q-152 0 -243.5 90.5t-91.5 242.5zM216 1111l249 309h298l254 -309h-225l-178 187l-171 -187h-227z" />
<glyph unicode="&#xfc;" d="M186 316v655h181v-655q0 -174 193 -174q135 0 223 88q79 79 79 228v513h181v-971h-181v112q-131 -129 -341 -129q-152 0 -243.5 90.5t-91.5 242.5zM345 1127v293h193v-293h-193zM695 1127v293h193v-293h-193z" />
<glyph unicode="&#xfd;" d="M112 971h230l296 -560l313 560h190l-605 -1111q-103 -190 -279 -190h-75v161h73q56 0 82 46l18 31l186 328zM518 1108l176 312h249l-238 -312h-187z" />
<glyph unicode="&#xfe;" d="M186 -322v1737h181v-537q129 110 278 110q192 0 316.5 -139.5t124.5 -354.5q0 -230 -120.5 -370.5t-317.5 -140.5q-83 0 -160.5 31.5t-120.5 81.5v-418h-181zM362 484q0 -160 71.5 -251t197.5 -91q127 0 198.5 89t71.5 246q0 352 -267 352q-128 0 -200 -91t-72 -254z" />
<glyph unicode="&#xff;" d="M112 971h230l296 -560l313 560h190l-605 -1111q-103 -190 -279 -190h-75v161h73q56 0 82 46l18 31l186 328zM345 1127v293h193v-293h-193zM695 1127v293h193v-293h-193z" />
<glyph unicode="&#x152;" d="M152 647q0 298 95.5 491t242.5 193q35 0 76 -16h461v-176h-294v-366h217v-176h-217v-421h317v-176h-480q-44 -16 -85 -16q-145 0 -239 187t-94 476zM345 649q0 -489 147 -489q23 0 49 26v940q-29 29 -54 29q-69 0 -105.5 -130.5t-36.5 -375.5z" />
<glyph unicode="&#x153;" d="M160 276v419q0 293 266 293q144 0 192 -96q59 96 195 96q121 0 190 -69q41 -40 55.5 -96.5t14.5 -176.5v-203h-370v-132q0 -92 23.5 -130.5t79.5 -38.5q97 0 97 149h170l1 -40q0 -128 -66.5 -198t-187.5 -70q-151 0 -202 117q-57 -117 -209 -117q-249 0 -249 293z M345 293q0 -151 88 -151q87 0 87 151v394q0 151 -87 151q-88 0 -88 -151v-394zM703 592h200v108q0 138 -100 138t-100 -139v-107z" />
<glyph unicode="&#x178;" d="M143 973h215l255 -395l264 395h214l-381 -567v-406h-192v406zM345 1127v293h193v-293h-193zM695 1127v293h193v-293h-193z" />
<glyph unicode="&#x2c6;" d="M216 1111l249 309h298l254 -309h-225l-178 187l-171 -187h-227z" />
<glyph unicode="&#x2dc;" d="M230 1142v15q0 121 63 194t168 73q90 0 187 -72q72 -54 104 -54q61 0 69 107h182q0 -129 -61.5 -205.5t-165.5 -76.5q-97 0 -184 64l-33 25q-50 37 -82 37q-61 0 -67 -107h-180z" />
<glyph unicode="&#x2000;" horiz-adv-x="723" />
<glyph unicode="&#x2001;" horiz-adv-x="1446" />
<glyph unicode="&#x2002;" horiz-adv-x="723" />
<glyph unicode="&#x2003;" horiz-adv-x="1446" />
<glyph unicode="&#x2004;" horiz-adv-x="482" />
<glyph unicode="&#x2005;" horiz-adv-x="361" />
<glyph unicode="&#x2006;" horiz-adv-x="241" />
<glyph unicode="&#x2007;" horiz-adv-x="241" />
<glyph unicode="&#x2008;" horiz-adv-x="180" />
<glyph unicode="&#x2009;" horiz-adv-x="289" />
<glyph unicode="&#x200a;" horiz-adv-x="80" />
<glyph unicode="&#x2010;" d="M392 384v223h450v-223h-450z" />
<glyph unicode="&#x2011;" d="M392 384v223h450v-223h-450z" />
<glyph unicode="&#x2012;" d="M392 384v223h450v-223h-450z" />
<glyph unicode="&#x2013;" d="M188 384v223h858v-223h-858z" />
<glyph unicode="&#x2014;" d="M155 384v223h923v-223h-923z" />
<glyph unicode="&#x2018;" d="M459 1414h315l-39 -668h-231z" />
<glyph unicode="&#x2019;" d="M459 1414h315l-39 -668h-231z" />
<glyph unicode="&#x201a;" d="M459 353h315l-39 -669h-231z" />
<glyph unicode="&#x201c;" d="M221 873l75 554h156v-554h-231zM741 873l77 554h156v-554h-233z" />
<glyph unicode="&#x201d;" d="M221 874v553h231l-75 -553h-156zM743 874v553h230l-75 -553h-155z" />
<glyph unicode="&#x201e;" d="M221 238h231l-75 -554h-156v554zM743 238h230l-75 -554h-155v554z" />
<glyph unicode="&#x2022;" d="M386 559q0 95 67.5 162.5t162.5 67.5t162.5 -67.5t67.5 -162.5t-67.5 -162.5t-162.5 -67.5t-162.5 67.5t-67.5 162.5z" />
<glyph unicode="&#x2026;" d="M103 0v299h206v-299h-206zM514 0v299h206v-299h-206zM925 0v299h206v-299h-206z" />
<glyph unicode="&#x202f;" horiz-adv-x="289" />
<glyph unicode="&#x2039;" d="M353 473l385 383l138 -138l-247 -245l247 -244l-138 -138z" />
<glyph unicode="&#x203a;" d="M357 229l247 244l-247 245l138 138l385 -383l-385 -382z" />
<glyph unicode="&#x205f;" horiz-adv-x="361" />
<glyph unicode="&#x2122;" d="M27 1183v132h493v-132h-177v-657h-142v657h-174zM565 526v789h184l93 -269l92 269h185v-789h-142v480l-86 -222h-98l-86 222v-480h-142z" />
<glyph unicode="&#x25fc;" horiz-adv-x="970" d="M0 0v970h970v-970h-970z" />
</font>
</defs>
</svg>
